<svg xmlns="http://www.w3.org/2000/svg" viewBox="0 0 32 32" width="32" height="32">
  <defs>
    <linearGradient id="trophyGradient" x1="0%" y1="0%" x2="100%" y2="100%">
      <stop offset="0%" style="stop-color:#f97316;stop-opacity:1" />
      <stop offset="100%" style="stop-color:#ec4899;stop-opacity:1" />
    </linearGradient>
  </defs>
  
  <!-- Background circle -->
  <circle cx="16" cy="16" r="15" fill="url(#trophyGradient)" stroke="#111111" stroke-width="1"/>
  
  <!-- Trophy cup -->
  <path d="M12 8h8v2c0 2.2-1.8 4-4 4s-4-1.8-4-4V8z" fill="#ffffff"/>
  <path d="M10 10h12v1c0 1.1-.9 2-2 2H12c-1.1 0-2-.9-2-2V10z" fill="#ffffff"/>
  <path d="M11 11h10v8c0 1.1-.9 2-2 2H13c-1.1 0-2-.9-2-2V11z" fill="#ffffff"/>
  
  <!-- Trophy handles -->
  <path d="M8 14c0-1.1.9-2 2-2s2 .9 2 2v2c0 1.1-.9 2-2 2s-2-.9-2-2V14z" fill="#ffffff"/>
  <path d="M20 14c0-1.1.9-2 2-2s2 .9 2 2v2c0 1.1-.9 2-2 2s-2-.9-2-2V14z" fill="#ffffff"/>
  
  <!-- Trophy base -->
  <rect x="13" y="19" width="6" height="2" fill="#ffffff"/>
  <rect x="14" y="21" width="4" height="1" fill="#ffffff"/>
</svg> 