<svg xmlns="http://www.w3.org/2000/svg" xmlns:xlink="http://www.w3.org/1999/xlink" width="180" zoomAndPan="magnify" viewBox="0 0 135 44.999999" height="60" preserveAspectRatio="xMidYMid meet" version="1.2"><defs><clipPath id="3c553f6870"><path d="M 75 7 L 84 7 L 84 23 L 75 23 Z M 75 7 "/></clipPath><clipPath id="6647dc5ef5"><path d="M 73.234375 6.457031 L 93.210938 9.761719 L 89.539062 31.960938 L 69.558594 28.65625 Z M 73.234375 6.457031 "/></clipPath><clipPath id="b30aefbfd5"><path d="M 73.234375 6.457031 L 93.210938 9.761719 L 89.539062 31.960938 L 69.558594 28.65625 Z M 73.234375 6.457031 "/></clipPath><clipPath id="194a958cce"><path d="M 73.234375 6.457031 L 93.210938 9.761719 L 89.539062 31.960938 L 69.558594 28.65625 Z M 73.234375 6.457031 "/></clipPath><clipPath id="28473316ec"><path d="M 72 7 L 78 7 L 78 20 L 72 20 Z M 72 7 "/></clipPath><clipPath id="09c0429ff4"><path d="M 73.234375 6.457031 L 93.210938 9.761719 L 89.539062 31.960938 L 69.558594 28.65625 Z M 73.234375 6.457031 "/></clipPath><clipPath id="5988bf8cd3"><path d="M 73.234375 6.457031 L 93.210938 9.761719 L 89.539062 31.960938 L 69.558594 28.65625 Z M 73.234375 6.457031 "/></clipPath><clipPath id="f6dcfa428a"><path d="M 73.234375 6.457031 L 93.210938 9.761719 L 89.539062 31.960938 L 69.558594 28.65625 Z M 73.234375 6.457031 "/></clipPath><clipPath id="82eb5a674a"><path d="M 74 25 L 81 25 L 81 31 L 74 31 Z M 74 25 "/></clipPath><clipPath id="4fe0195575"><path d="M 73.234375 6.457031 L 93.210938 9.761719 L 89.539062 31.960938 L 69.558594 28.65625 Z M 73.234375 6.457031 "/></clipPath><clipPath id="92fd238a98"><path d="M 73.234375 6.457031 L 93.210938 9.761719 L 89.539062 31.960938 L 69.558594 28.65625 Z M 73.234375 6.457031 "/></clipPath><clipPath id="0a2bc8ca42"><path d="M 73.234375 6.457031 L 93.210938 9.761719 L 89.539062 31.960938 L 69.558594 28.65625 Z M 73.234375 6.457031 "/></clipPath><clipPath id="25aca7b72c"><path d="M 76 21 L 81 21 L 81 27 L 76 27 Z M 76 21 "/></clipPath><clipPath id="e5148275ad"><path d="M 73.234375 6.457031 L 93.210938 9.761719 L 89.539062 31.960938 L 69.558594 28.65625 Z M 73.234375 6.457031 "/></clipPath><clipPath id="98e4b67ba5"><path d="M 73.234375 6.457031 L 93.210938 9.761719 L 89.539062 31.960938 L 69.558594 28.65625 Z M 73.234375 6.457031 "/></clipPath><clipPath id="9a0302e810"><path d="M 73.234375 6.457031 L 93.210938 9.761719 L 89.539062 31.960938 L 69.558594 28.65625 Z M 73.234375 6.457031 "/></clipPath><clipPath id="7383d8a003"><path d="M 80 8 L 90 8 L 90 23 L 80 23 Z M 80 8 "/></clipPath><clipPath id="7f260d24df"><path d="M 73.234375 6.457031 L 93.210938 9.761719 L 89.539062 31.960938 L 69.558594 28.65625 Z M 73.234375 6.457031 "/></clipPath><clipPath id="68c55de17f"><path d="M 73.234375 6.457031 L 93.210938 9.761719 L 89.539062 31.960938 L 69.558594 28.65625 Z M 73.234375 6.457031 "/></clipPath><clipPath id="e494d5e843"><path d="M 73.234375 6.457031 L 93.210938 9.761719 L 89.539062 31.960938 L 69.558594 28.65625 Z M 73.234375 6.457031 "/></clipPath><clipPath id="8dfcf12ae9"><path d="M 85 10 L 93 10 L 93 21 L 85 21 Z M 85 10 "/></clipPath><clipPath id="001cb9059a"><path d="M 73.234375 6.457031 L 93.210938 9.761719 L 89.539062 31.960938 L 69.558594 28.65625 Z M 73.234375 6.457031 "/></clipPath><clipPath id="3aa1c481b9"><path d="M 73.234375 6.457031 L 93.210938 9.761719 L 89.539062 31.960938 L 69.558594 28.65625 Z M 73.234375 6.457031 "/></clipPath><clipPath id="dc10f7667d"><path d="M 73.234375 6.457031 L 93.210938 9.761719 L 89.539062 31.960938 L 69.558594 28.65625 Z M 73.234375 6.457031 "/></clipPath><clipPath id="8eb09d1b1a"><path d="M 79 26 L 85 26 L 85 32 L 79 32 Z M 79 26 "/></clipPath><clipPath id="cd45427dd2"><path d="M 73.234375 6.457031 L 93.210938 9.761719 L 89.539062 31.960938 L 69.558594 28.65625 Z M 73.234375 6.457031 "/></clipPath><clipPath id="fd6dc5862e"><path d="M 73.234375 6.457031 L 93.210938 9.761719 L 89.539062 31.960938 L 69.558594 28.65625 Z M 73.234375 6.457031 "/></clipPath><clipPath id="c663a86db6"><path d="M 73.234375 6.457031 L 93.210938 9.761719 L 89.539062 31.960938 L 69.558594 28.65625 Z M 73.234375 6.457031 "/></clipPath><clipPath id="f606cc5de6"><path d="M 80 22 L 84 22 L 84 27 L 80 27 Z M 80 22 "/></clipPath><clipPath id="45670faffc"><path d="M 73.234375 6.457031 L 93.210938 9.761719 L 89.539062 31.960938 L 69.558594 28.65625 Z M 73.234375 6.457031 "/></clipPath><clipPath id="ee24d08388"><path d="M 73.234375 6.457031 L 93.210938 9.761719 L 89.539062 31.960938 L 69.558594 28.65625 Z M 73.234375 6.457031 "/></clipPath><clipPath id="ddec172cee"><path d="M 73.234375 6.457031 L 93.210938 9.761719 L 89.539062 31.960938 L 69.558594 28.65625 Z M 73.234375 6.457031 "/></clipPath></defs><g id="4360a186a2"><g style="fill:#f97316;fill-opacity:1;"><g transform="translate(86.023718, 30.139918)"><path style="stroke:none" d="M 8.125 -14.421875 C 9.457031 -14.421875 10.617188 -14.203125 11.609375 -13.765625 C 12.597656 -13.328125 13.359375 -12.695312 13.890625 -11.875 C 14.421875 -11.050781 14.6875 -10.085938 14.6875 -8.984375 C 14.6875 -7.890625 14.421875 -6.925781 13.890625 -6.09375 C 13.359375 -5.269531 12.597656 -4.640625 11.609375 -4.203125 C 10.617188 -3.765625 9.457031 -3.546875 8.125 -3.546875 L 6.03125 -3.546875 L 6.03125 0 L 1.171875 0 L 1.171875 -14.421875 Z M 7.8125 -7.296875 C 8.46875 -7.296875 8.960938 -7.441406 9.296875 -7.734375 C 9.628906 -8.035156 9.796875 -8.453125 9.796875 -8.984375 C 9.796875 -9.523438 9.628906 -9.941406 9.296875 -10.234375 C 8.960938 -10.523438 8.46875 -10.671875 7.8125 -10.671875 L 6.03125 -10.671875 L 6.03125 -7.296875 Z M 7.8125 -7.296875 "/></g></g><g style="fill:#f97316;fill-opacity:1;"><g transform="translate(101.33942, 30.139918)"><path style="stroke:none" d="M 5.46875 -10.0625 C 6.289062 -11.007812 7.503906 -11.484375 9.109375 -11.484375 L 9.109375 -7.359375 C 8.734375 -7.410156 8.390625 -7.4375 8.078125 -7.4375 C 6.484375 -7.4375 5.6875 -6.628906 5.6875 -5.015625 L 5.6875 0 L 1.03125 0 L 1.03125 -11.265625 L 5.46875 -11.265625 Z M 5.46875 -10.0625 "/></g></g><g style="fill:#f97316;fill-opacity:1;"><g transform="translate(110.636027, 30.139918)"><path style="stroke:none" d="M 6.984375 0.203125 C 5.734375 0.203125 4.609375 -0.046875 3.609375 -0.546875 C 2.617188 -1.046875 1.84375 -1.738281 1.28125 -2.625 C 0.71875 -3.507812 0.4375 -4.515625 0.4375 -5.640625 C 0.4375 -6.773438 0.71875 -7.785156 1.28125 -8.671875 C 1.84375 -9.554688 2.617188 -10.242188 3.609375 -10.734375 C 4.609375 -11.234375 5.734375 -11.484375 6.984375 -11.484375 C 8.242188 -11.484375 9.375 -11.234375 10.375 -10.734375 C 11.375 -10.242188 12.148438 -9.554688 12.703125 -8.671875 C 13.265625 -7.785156 13.546875 -6.773438 13.546875 -5.640625 C 13.546875 -4.515625 13.265625 -3.507812 12.703125 -2.625 C 12.148438 -1.738281 11.375 -1.046875 10.375 -0.546875 C 9.375 -0.046875 8.242188 0.203125 6.984375 0.203125 Z M 6.984375 -3.421875 C 7.523438 -3.421875 7.96875 -3.613281 8.3125 -4 C 8.65625 -4.394531 8.828125 -4.941406 8.828125 -5.640625 C 8.828125 -6.347656 8.65625 -6.894531 8.3125 -7.28125 C 7.96875 -7.664062 7.523438 -7.859375 6.984375 -7.859375 C 6.453125 -7.859375 6.015625 -7.664062 5.671875 -7.28125 C 5.328125 -6.894531 5.15625 -6.347656 5.15625 -5.640625 C 5.15625 -4.941406 5.328125 -4.394531 5.671875 -4 C 6.015625 -3.613281 6.453125 -3.421875 6.984375 -3.421875 Z M 6.984375 -3.421875 "/></g></g><g clip-rule="nonzero" clip-path="url(#3c553f6870)"><g clip-rule="nonzero" clip-path="url(#6647dc5ef5)"><g clip-rule="nonzero" clip-path="url(#b30aefbfd5)"><g clip-rule="nonzero" clip-path="url(#194a958cce)"><path style=" stroke:none;fill-rule:nonzero;fill:#edc730;fill-opacity:1;" d="M 83.222656 8.109375 L 80.847656 22.464844 C 76.828125 21.800781 75.230469 14.835938 76.09375 9.613281 L 76.523438 7.003906 L 83.222656 8.109375 "/></g></g></g></g><g clip-rule="nonzero" clip-path="url(#28473316ec)"><g clip-rule="nonzero" clip-path="url(#09c0429ff4)"><g clip-rule="nonzero" clip-path="url(#5988bf8cd3)"><g clip-rule="nonzero" clip-path="url(#f6dcfa428a)"><path style=" stroke:none;fill-rule:nonzero;fill:#edc730;fill-opacity:1;" d="M 76.621094 17.695312 C 74.734375 17.015625 73.132812 15.160156 73.542969 12.667969 C 73.546875 12.648438 73.550781 12.628906 73.550781 12.609375 C 73.554688 12.589844 73.75 10.613281 74.714844 9.640625 C 75.160156 9.191406 75.511719 8.992188 76.175781 9.105469 L 76.390625 7.824219 C 75.4375 7.667969 74.609375 7.9375 73.925781 8.628906 C 72.664062 9.90625 72.386719 12.183594 72.355469 12.5 C 71.78125 16.027344 74.464844 18.703125 77.203125 19.1875 C 76.980469 18.71875 76.789062 18.21875 76.621094 17.695312 "/></g></g></g></g><g clip-rule="nonzero" clip-path="url(#82eb5a674a)"><g clip-rule="nonzero" clip-path="url(#4fe0195575)"><g clip-rule="nonzero" clip-path="url(#92fd238a98)"><g clip-rule="nonzero" clip-path="url(#0a2bc8ca42)"><path style=" stroke:none;fill-rule:nonzero;fill:#1d1c1b;fill-opacity:1;" d="M 76.136719 25.71875 L 75.707031 28.328125 L 75.078125 28.226562 L 74.863281 29.53125 L 79.550781 30.304688 L 80.199219 26.390625 L 76.136719 25.71875 "/></g></g></g></g><g clip-rule="nonzero" clip-path="url(#25aca7b72c)"><g clip-rule="nonzero" clip-path="url(#e5148275ad)"><g clip-rule="nonzero" clip-path="url(#98e4b67ba5)"><g clip-rule="nonzero" clip-path="url(#9a0302e810)"><path style=" stroke:none;fill-rule:nonzero;fill:#edc730;fill-opacity:1;" d="M 79.546875 21.996094 L 79.484375 22.378906 C 79.363281 23.113281 78.871094 23.738281 78.179688 24.042969 C 77.484375 24.347656 76.992188 24.972656 76.871094 25.707031 L 76.847656 25.835938 L 80.199219 26.390625 L 80.847656 22.464844 L 79.546875 21.996094 "/></g></g></g></g><g clip-rule="nonzero" clip-path="url(#7383d8a003)"><g clip-rule="nonzero" clip-path="url(#7f260d24df)"><g clip-rule="nonzero" clip-path="url(#68c55de17f)"><g clip-rule="nonzero" clip-path="url(#e494d5e843)"><path style=" stroke:none;fill-rule:nonzero;fill:#eeb021;fill-opacity:1;" d="M 83.222656 8.109375 L 80.847656 22.464844 C 84.863281 23.132812 88.621094 17.050781 89.484375 11.828125 L 89.917969 9.21875 L 83.222656 8.109375 "/></g></g></g></g><g clip-rule="nonzero" clip-path="url(#8dfcf12ae9)"><g clip-rule="nonzero" clip-path="url(#001cb9059a)"><g clip-rule="nonzero" clip-path="url(#3aa1c481b9)"><g clip-rule="nonzero" clip-path="url(#dc10f7667d)"><path style=" stroke:none;fill-rule:nonzero;fill:#eeb021;fill-opacity:1;" d="M 91.851562 11.597656 C 91.429688 10.722656 90.734375 10.199219 89.78125 10.039062 L 89.570312 11.320312 C 90.238281 11.429688 90.503906 11.730469 90.785156 12.300781 C 91.382812 13.53125 90.933594 15.464844 90.929688 15.484375 C 90.921875 15.5 90.917969 15.523438 90.917969 15.542969 C 90.503906 18.035156 88.386719 19.273438 86.382812 19.308594 C 86.054688 19.753906 85.710938 20.164062 85.351562 20.535156 C 88.101562 20.957031 91.5 19.289062 92.09375 15.765625 C 92.164062 15.457031 92.636719 13.210938 91.851562 11.597656 "/></g></g></g></g><g clip-rule="nonzero" clip-path="url(#8eb09d1b1a)"><g clip-rule="nonzero" clip-path="url(#cd45427dd2)"><g clip-rule="nonzero" clip-path="url(#fd6dc5862e)"><g clip-rule="nonzero" clip-path="url(#c663a86db6)"><path style=" stroke:none;fill-rule:nonzero;fill:#191716;fill-opacity:1;" d="M 83.824219 29.671875 L 84.257812 27.0625 L 80.199219 26.390625 L 79.550781 30.304688 L 84.238281 31.082031 L 84.453125 29.777344 L 83.824219 29.671875 "/></g></g></g></g><g clip-rule="nonzero" clip-path="url(#f606cc5de6)"><g clip-rule="nonzero" clip-path="url(#45670faffc)"><g clip-rule="nonzero" clip-path="url(#ee24d08388)"><g clip-rule="nonzero" clip-path="url(#ddec172cee)"><path style=" stroke:none;fill-rule:nonzero;fill:#eeb021;fill-opacity:1;" d="M 82.226562 22.4375 L 82.164062 22.824219 C 82.042969 23.558594 82.304688 24.308594 82.863281 24.820312 C 83.425781 25.332031 83.6875 26.078125 83.566406 26.8125 L 83.546875 26.941406 L 80.199219 26.390625 L 80.847656 22.464844 L 82.226562 22.4375 "/></g></g></g></g><g style="fill:#f97316;fill-opacity:1;"><g transform="translate(8.36763, 30.139918)"><path style="stroke:none" d="M 16.59375 -14.421875 L 10.484375 0 L 5.703125 0 L -0.390625 -14.421875 L 4.84375 -14.421875 L 8.28125 -6 L 11.8125 -14.421875 Z M 16.59375 -14.421875 "/></g></g><g style="fill:#f97316;fill-opacity:1;"><g transform="translate(23.435914, 30.139918)"><path style="stroke:none" d="M 6.078125 -11.484375 C 8.054688 -11.484375 9.566406 -11.039062 10.609375 -10.15625 C 11.660156 -9.269531 12.1875 -7.90625 12.1875 -6.0625 L 12.1875 0 L 7.859375 0 L 7.859375 -1.484375 C 7.316406 -0.359375 6.25 0.203125 4.65625 0.203125 C 3.757812 0.203125 3 0.0507812 2.375 -0.25 C 1.75 -0.5625 1.273438 -0.984375 0.953125 -1.515625 C 0.628906 -2.046875 0.46875 -2.640625 0.46875 -3.296875 C 0.46875 -4.410156 0.894531 -5.253906 1.75 -5.828125 C 2.601562 -6.410156 3.894531 -6.703125 5.625 -6.703125 L 7.5 -6.703125 C 7.351562 -7.578125 6.644531 -8.015625 5.375 -8.015625 C 4.863281 -8.015625 4.347656 -7.9375 3.828125 -7.78125 C 3.304688 -7.625 2.863281 -7.40625 2.5 -7.125 L 1.015625 -10.203125 C 1.660156 -10.597656 2.4375 -10.910156 3.34375 -11.140625 C 4.257812 -11.367188 5.171875 -11.484375 6.078125 -11.484375 Z M 6.0625 -2.59375 C 6.382812 -2.59375 6.675781 -2.679688 6.9375 -2.859375 C 7.207031 -3.035156 7.398438 -3.304688 7.515625 -3.671875 L 7.515625 -4.453125 L 6.375 -4.453125 C 5.425781 -4.453125 4.953125 -4.132812 4.953125 -3.5 C 4.953125 -3.238281 5.050781 -3.019531 5.25 -2.84375 C 5.445312 -2.675781 5.71875 -2.59375 6.0625 -2.59375 Z M 6.0625 -2.59375 "/></g></g><g style="fill:#f97316;fill-opacity:1;"><g transform="translate(36.607831, 30.139918)"><path style="stroke:none" d="M 1.03125 -15.296875 L 5.6875 -15.296875 L 5.6875 0 L 1.03125 0 Z M 1.03125 -15.296875 "/></g></g><g style="fill:#f97316;fill-opacity:1;"><g transform="translate(43.327776, 30.139918)"><path style="stroke:none" d="M 1.03125 -11.265625 L 5.6875 -11.265625 L 5.6875 0 L 1.03125 0 Z M 3.359375 -12.1875 C 2.523438 -12.1875 1.847656 -12.40625 1.328125 -12.84375 C 0.816406 -13.289062 0.5625 -13.859375 0.5625 -14.546875 C 0.5625 -15.234375 0.816406 -15.800781 1.328125 -16.25 C 1.847656 -16.695312 2.523438 -16.921875 3.359375 -16.921875 C 4.210938 -16.921875 4.894531 -16.707031 5.40625 -16.28125 C 5.914062 -15.851562 6.171875 -15.300781 6.171875 -14.625 C 6.171875 -13.914062 5.914062 -13.332031 5.40625 -12.875 C 4.894531 -12.414062 4.210938 -12.1875 3.359375 -12.1875 Z M 3.359375 -12.1875 "/></g></g><g style="fill:#f97316;fill-opacity:1;"><g transform="translate(50.047723, 30.139918)"><path style="stroke:none" d="M 13.5 -15.296875 L 13.5 0 L 9.0625 0 L 9.0625 -0.921875 C 8.394531 -0.171875 7.367188 0.203125 5.984375 0.203125 C 4.992188 0.203125 4.082031 -0.03125 3.25 -0.5 C 2.414062 -0.976562 1.753906 -1.660156 1.265625 -2.546875 C 0.773438 -3.441406 0.53125 -4.472656 0.53125 -5.640625 C 0.53125 -6.816406 0.773438 -7.847656 1.265625 -8.734375 C 1.753906 -9.617188 2.414062 -10.296875 3.25 -10.765625 C 4.082031 -11.242188 4.992188 -11.484375 5.984375 -11.484375 C 7.234375 -11.484375 8.1875 -11.160156 8.84375 -10.515625 L 8.84375 -15.296875 Z M 7.09375 -3.421875 C 7.625 -3.421875 8.0625 -3.613281 8.40625 -4 C 8.75 -4.394531 8.921875 -4.941406 8.921875 -5.640625 C 8.921875 -6.347656 8.75 -6.894531 8.40625 -7.28125 C 8.0625 -7.664062 7.625 -7.859375 7.09375 -7.859375 C 6.550781 -7.859375 6.109375 -7.664062 5.765625 -7.28125 C 5.421875 -6.894531 5.25 -6.347656 5.25 -5.640625 C 5.25 -4.941406 5.421875 -4.394531 5.765625 -4 C 6.109375 -3.613281 6.550781 -3.421875 7.09375 -3.421875 Z M 7.09375 -3.421875 "/></g></g><g style="fill:#f97316;fill-opacity:1;"><g transform="translate(64.580118, 30.139918)"><path style="stroke:none" d="M 6.078125 -11.484375 C 8.054688 -11.484375 9.566406 -11.039062 10.609375 -10.15625 C 11.660156 -9.269531 12.1875 -7.90625 12.1875 -6.0625 L 12.1875 0 L 7.859375 0 L 7.859375 -1.484375 C 7.316406 -0.359375 6.25 0.203125 4.65625 0.203125 C 3.757812 0.203125 3 0.0507812 2.375 -0.25 C 1.75 -0.5625 1.273438 -0.984375 0.953125 -1.515625 C 0.628906 -2.046875 0.46875 -2.640625 0.46875 -3.296875 C 0.46875 -4.410156 0.894531 -5.253906 1.75 -5.828125 C 2.601562 -6.410156 3.894531 -6.703125 5.625 -6.703125 L 7.5 -6.703125 C 7.351562 -7.578125 6.644531 -8.015625 5.375 -8.015625 C 4.863281 -8.015625 4.347656 -7.9375 3.828125 -7.78125 C 3.304688 -7.625 2.863281 -7.40625 2.5 -7.125 L 1.015625 -10.203125 C 1.660156 -10.597656 2.4375 -10.910156 3.34375 -11.140625 C 4.257812 -11.367188 5.171875 -11.484375 6.078125 -11.484375 Z M 6.0625 -2.59375 C 6.382812 -2.59375 6.675781 -2.679688 6.9375 -2.859375 C 7.207031 -3.035156 7.398438 -3.304688 7.515625 -3.671875 L 7.515625 -4.453125 L 6.375 -4.453125 C 5.425781 -4.453125 4.953125 -4.132812 4.953125 -3.5 C 4.953125 -3.238281 5.050781 -3.019531 5.25 -2.84375 C 5.445312 -2.675781 5.71875 -2.59375 6.0625 -2.59375 Z M 6.0625 -2.59375 "/></g></g></g></svg>